<svg width="247" height="177" viewBox="0 0 247 177" version="1.1" xmlns="http://www.w3.org/2000/svg" xmlns:xlink="http://www.w3.org/1999/xlink"><title>Group 3</title><defs><path d="M23.735 99H163.24c8.29 0 15.01-6.72 15.01-15.01V15.01c0-8.303-6.72-15.01-15.01-15.01H16.325C8.037 0 1.317 6.72 1.317 15.01v67.27L.249 111.71 23.735 99z" id="path-1"/><filter x="-50%" y="-50%" width="200%" height="200%" filterUnits="objectBoundingBox" id="filter-2"><feOffset dx="16" dy="20" in="SourceAlpha" result="shadowOffsetOuter1"/><feGaussianBlur stdDeviation="17.5" in="shadowOffsetOuter1" result="shadowBlurOuter1"/><feColorMatrix values="0 0 0 0 0 0 0 0 0 0 0 0 0 0 0 0 0 0 0.174960371 0" type="matrix" in="shadowBlurOuter1"/></filter></defs><g id="Welcome" stroke="none" stroke-width="1" fill="none" fill-rule="evenodd"><g id="Desktop-HD-Copy" transform="translate(-685 -421)"><g id="Group" transform="translate(381 226)"><g id="Group-3" transform="matrix(-1 0 0 1 500 210)"><g id="--copy-4" transform="matrix(-1 0 0 1 178.498 0)"><use fill="#000" fill-opacity="1" filter="url(#filter-2)" xlink:href="#path-1"/><use fill="#8BCBCA" fill-rule="evenodd" xlink:href="#path-1"/></g><g id="text" transform="matrix(-1 0 0 1 129 31)" fill="#FFF"><rect id="Rectangle-5" x="0" y="0" width="85" height="12.385" rx="6.192"/><rect id="Rectangle-5-Copy" x="0" y="28.308" width="67" height="12.385" rx="6.192"/></g></g></g></g></g></svg>