<svg width="327" height="212" viewBox="0 0 327 212" version="1.1" xmlns="http://www.w3.org/2000/svg" xmlns:xlink="http://www.w3.org/1999/xlink"><title>Group 3</title><defs><path d="M22.82 134.312h220.554c8.275 0 14.992-6.715 14.992-15V15c0-8.293-6.712-15-14.992-15H16.084C7.81 0 1.094 6.716 1.094 15v102.848L0 146.703l22.82-12.39z" id="path-1"/><filter x="-50%" y="-50%" width="200%" height="200%" filterUnits="objectBoundingBox" id="filter-2"><feOffset dx="16" dy="20" in="SourceAlpha" result="shadowOffsetOuter1"/><feGaussianBlur stdDeviation="17.5" in="shadowOffsetOuter1" result="shadowBlurOuter1"/><feColorMatrix values="0 0 0 0 0 0 0 0 0 0 0 0 0 0 0 0 0 0 0.174960371 0" type="matrix" in="shadowBlurOuter1"/></filter></defs><g id="Welcome" stroke="none" stroke-width="1" fill="none" fill-rule="evenodd"><g id="Desktop-HD-Copy" transform="translate(-330 -314)"><g id="Group" transform="translate(381 226)"><g id="Group-3" transform="translate(0 103)"><g id="--copy-4" transform="matrix(-1 0 0 1 258.366 0)"><use fill="#000" fill-opacity="1" filter="url(#filter-2)" xlink:href="#path-1"/><use fill="#FFF" fill-rule="evenodd" xlink:href="#path-1"/></g><g id="text" transform="translate(46 34)" fill="#8BCBCA"><rect id="Rectangle-5" x="0" y="0" width="165" height="12.385" rx="6.192"/><rect id="Rectangle-5-Copy" x="0" y="28.308" width="115" height="12.385" rx="6.192"/><rect id="Rectangle-5-Copy-2" x="0" y="56.615" width="140" height="12.385" rx="6.192"/></g></g></g></g></g></svg>